<svg xmlns="http://www.w3.org/2000/svg" viewBox="0 0 32 32" width="32" height="32">
  <defs>
    <linearGradient id="grad1" x1="0%" y1="0%" x2="100%" y2="100%">
      <stop offset="0%" style="stop-color:#667eea;stop-opacity:1" />
      <stop offset="100%" style="stop-color:#764ba2;stop-opacity:1" />
    </linearGradient>
  </defs>
  
  <!-- Background circle -->
  <circle cx="16" cy="16" r="15" fill="url(#grad1)" stroke="#fff" stroke-width="1"/>
  
  <!-- Cloud icon representing cloud solutions -->
  <path d="M8.5 18.5c-1.1 0-2-.9-2-2 0-.8.5-1.5 1.2-1.8.1-1.4 1.2-2.5 2.6-2.5.8 0 1.5.4 2 1 .3-.1.6-.2.9-.2 1.7 0 3 1.3 3 3 0 .2 0 .4-.1.6.6.4 1 1.1 1 1.9 0 1.1-.9 2-2 2h-6.6z" fill="white" opacity="0.9"/>
  
  <!-- Data/Database icon -->
  <ellipse cx="22" cy="20" rx="3.5" ry="1.5" fill="white" opacity="0.8"/>
  <path d="M18.5 20v2c0 .8 1.6 1.5 3.5 1.5s3.5-.7 3.5-1.5v-2" fill="none" stroke="white" stroke-width="1.2" opacity="0.8"/>
  <path d="M18.5 22v2c0 .8 1.6 1.5 3.5 1.5s3.5-.7 3.5-1.5v-2" fill="none" stroke="white" stroke-width="1.2" opacity="0.8"/>
  
  <!-- Initial "V" -->
  <text x="16" y="12" font-family="Arial, sans-serif" font-size="8" font-weight="bold" text-anchor="middle" fill="white">V</text>
</svg>
